<?xml version="1.0" encoding="UTF-8"?>
<svg id="Layer_1" data-name="Layer 1" xmlns="http://www.w3.org/2000/svg" viewBox="0 0 689.78 887.88">
  <path fill="#000000" d="M533.01,558.67c0,108.31-106.89,200.95-219.48,200.95-86.94,0-153.92-49.88-153.92-143.94,0-111.16,58.43-148.22,158.19-168.17l215.2-44.18v155.34ZM34.2,179.57l115.44,75.53c51.31-82.66,129.69-116.86,238-116.86,89.79,0,145.37,24.23,145.37,76.96,0,39.9-25.65,69.83-65.56,79.81l-232.3,51.31C89.79,377.67,0,456.05,0,621.37c0,151.07,104.04,266.51,276.48,266.51,109.74,0,185.27-48.46,257.96-129.69h12.83v105.46h142.52V286.46C689.78,89.79,604.27,0,387.65,0,216.63,0,92.64,57.01,34.2,179.57Z"/>
</svg>