<svg width="30" height="30" viewBox="0 0 30 30" fill="none" xmlns="http://www.w3.org/2000/svg">
<circle cx="15" cy="15" r="14" fill="white" stroke="white" stroke-width="2"/>
<mask id="path-2-inside-1_24_71" fill="white">
<path d="M15 1.25168e-06C11.0218 1.42557e-06 7.20645 1.58035 4.3934 4.3934C1.58036 7.20645 4.00082e-06 11.0218 3.87436e-06 15C3.74791e-06 18.9782 1.58036 22.7936 4.3934 25.6066C7.20645 28.4196 11.0218 30 15 30L15 15L15 1.25168e-06Z"/>
</mask>
<path d="M15 1.25168e-06C11.0218 1.42557e-06 7.20645 1.58035 4.3934 4.3934C1.58036 7.20645 4.00082e-06 11.0218 3.87436e-06 15C3.74791e-06 18.9782 1.58036 22.7936 4.3934 25.6066C7.20645 28.4196 11.0218 30 15 30L15 15L15 1.25168e-06Z" fill="black" stroke="white" stroke-width="2" mask="url(#path-2-inside-1_24_71)"/>
</svg>
