<svg width="30" height="30" viewBox="0 0 30 30" fill="none" xmlns="http://www.w3.org/2000/svg">
<circle cx="15" cy="15" r="14" transform="rotate(180 15 15)" fill="white" stroke="white" stroke-width="2"/>
<mask id="path-2-inside-1_24_66" fill="white">
<path d="M15 30C18.9783 30 22.7936 28.4197 25.6066 25.6066C28.4197 22.7936 30 18.9783 30 15C30 11.0218 28.4197 7.20645 25.6066 4.3934C22.7936 1.58036 18.9783 3.95338e-06 15 3.87436e-06L15 15L15 30Z"/>
</mask>
<path d="M15 30C18.9783 30 22.7936 28.4197 25.6066 25.6066C28.4197 22.7936 30 18.9783 30 15C30 11.0218 28.4197 7.20645 25.6066 4.3934C22.7936 1.58036 18.9783 3.95338e-06 15 3.87436e-06L15 15L15 30Z" fill="black" stroke="white" stroke-width="2" mask="url(#path-2-inside-1_24_66)"/>
</svg>
